<mxfile host="app.diagrams.net" modified="2022-08-18T07:16:54.809Z" agent="5.0 (Macintosh; Intel Mac OS X 10_15_7) AppleWebKit/537.36 (KHTML, like Gecko) Chrome/104.0.0.0 Safari/537.36" etag="z1DYczM-ZaSXOYf-ZkfS" version="20.2.4" type="github">
  <diagram id="VRfGfUh_BewFmD2BUOxz" name="第 1 页">
    <mxGraphModel dx="1074" dy="648" grid="1" gridSize="10" guides="1" tooltips="1" connect="1" arrows="1" fold="1" page="1" pageScale="1" pageWidth="827" pageHeight="1169" math="0" shadow="0">
      <root>
        <mxCell id="0" />
        <mxCell id="1" parent="0" />
        <mxCell id="LYocZ-cEpQhHaqbw6zhM-1" value="服务端" style="aspect=fixed;perimeter=ellipsePerimeter;html=1;align=center;shadow=0;dashed=0;spacingTop=3;image;image=img/lib/active_directory/web_server.svg;fontSize=16;" vertex="1" parent="1">
          <mxGeometry x="827" y="165" width="104" height="130" as="geometry" />
        </mxCell>
        <mxCell id="LYocZ-cEpQhHaqbw6zhM-2" value="客户端" style="aspect=fixed;perimeter=ellipsePerimeter;html=1;align=center;shadow=0;dashed=0;spacingTop=3;image;image=img/lib/active_directory/home_page.svg;fontSize=16;" vertex="1" parent="1">
          <mxGeometry x="140" y="190" width="122.22" height="110" as="geometry" />
        </mxCell>
        <mxCell id="LYocZ-cEpQhHaqbw6zhM-6" value="&lt;font color=&quot;#ff0000&quot;&gt;&lt;b&gt;中间人服务器&lt;/b&gt;&lt;/font&gt;" style="aspect=fixed;perimeter=ellipsePerimeter;html=1;align=center;shadow=0;dashed=0;spacingTop=3;image;image=img/lib/active_directory/sql_server.svg;fontSize=16;" vertex="1" parent="1">
          <mxGeometry x="506.5" y="180" width="77" height="100" as="geometry" />
        </mxCell>
        <mxCell id="LYocZ-cEpQhHaqbw6zhM-8" value="" style="shape=flexArrow;endArrow=classic;html=1;rounded=0;fontSize=16;fillColor=#dae8fc;strokeColor=#6c8ebf;" edge="1" parent="1">
          <mxGeometry width="50" height="50" relative="1" as="geometry">
            <mxPoint x="200" y="330" as="sourcePoint" />
            <mxPoint x="200" y="980" as="targetPoint" />
          </mxGeometry>
        </mxCell>
        <mxCell id="LYocZ-cEpQhHaqbw6zhM-11" value="" style="shape=flexArrow;endArrow=classic;html=1;rounded=0;fontSize=16;fillColor=#ffe6cc;strokeColor=#d79b00;" edge="1" parent="1">
          <mxGeometry width="50" height="50" relative="1" as="geometry">
            <mxPoint x="888" y="320" as="sourcePoint" />
            <mxPoint x="880" y="980" as="targetPoint" />
          </mxGeometry>
        </mxCell>
        <mxCell id="LYocZ-cEpQhHaqbw6zhM-12" value="1.1 发起 HTTPS 建立连接请求" style="endArrow=classic;html=1;rounded=0;fontSize=16;fillColor=#dae8fc;strokeColor=#6c8ebf;strokeWidth=2;" edge="1" parent="1">
          <mxGeometry y="20" width="50" height="50" relative="1" as="geometry">
            <mxPoint x="210" y="370" as="sourcePoint" />
            <mxPoint x="470" y="370" as="targetPoint" />
            <mxPoint as="offset" />
          </mxGeometry>
        </mxCell>
        <mxCell id="LYocZ-cEpQhHaqbw6zhM-13" value="2. 1发起 HTTPS 建立连接请求" style="endArrow=classic;html=1;rounded=0;fontSize=16;strokeWidth=2;fillColor=#e1d5e7;strokeColor=#9673a6;" edge="1" parent="1">
          <mxGeometry y="30" width="50" height="50" relative="1" as="geometry">
            <mxPoint x="620" y="370" as="sourcePoint" />
            <mxPoint x="880" y="370" as="targetPoint" />
            <mxPoint as="offset" />
          </mxGeometry>
        </mxCell>
        <mxCell id="LYocZ-cEpQhHaqbw6zhM-14" value="1.2 返回中间人自己的公钥证书" style="endArrow=classic;html=1;rounded=0;fontSize=16;fillColor=#e1d5e7;strokeColor=#9673a6;strokeWidth=2;" edge="1" parent="1">
          <mxGeometry y="-30" width="50" height="50" relative="1" as="geometry">
            <mxPoint x="470" y="450" as="sourcePoint" />
            <mxPoint x="210" y="450" as="targetPoint" />
            <mxPoint as="offset" />
          </mxGeometry>
        </mxCell>
        <mxCell id="LYocZ-cEpQhHaqbw6zhM-15" value="2.2 返回服务端的公钥证书" style="endArrow=classic;html=1;rounded=0;fontSize=16;fillColor=#ffe6cc;strokeColor=#d79b00;strokeWidth=2;" edge="1" parent="1">
          <mxGeometry x="-0.0538" y="-20" width="50" height="50" relative="1" as="geometry">
            <mxPoint x="883" y="440" as="sourcePoint" />
            <mxPoint x="623" y="440" as="targetPoint" />
            <mxPoint as="offset" />
          </mxGeometry>
        </mxCell>
        <mxCell id="LYocZ-cEpQhHaqbw6zhM-17" value="1.3 验证证书的合法性，&lt;br&gt;从证书拿到公钥" style="text;html=1;align=center;verticalAlign=middle;resizable=0;points=[];autosize=1;strokeColor=#6c8ebf;fillColor=#dae8fc;fontSize=16;" vertex="1" parent="1">
          <mxGeometry x="106.11" y="490" width="190" height="50" as="geometry" />
        </mxCell>
        <mxCell id="LYocZ-cEpQhHaqbw6zhM-10" value="" style="shape=flexArrow;endArrow=classic;html=1;rounded=0;fontSize=16;fillColor=#e1d5e7;strokeColor=#9673a6;" edge="1" parent="1">
          <mxGeometry width="50" height="50" relative="1" as="geometry">
            <mxPoint x="478" y="320" as="sourcePoint" />
            <mxPoint x="480" y="980" as="targetPoint" />
          </mxGeometry>
        </mxCell>
        <mxCell id="LYocZ-cEpQhHaqbw6zhM-18" value="1.5 中间人用私钥加密后，&lt;br&gt;得到随机数" style="text;html=1;align=center;verticalAlign=middle;resizable=0;points=[];autosize=1;strokeColor=#9673a6;fillColor=#e1d5e7;fontSize=16;" vertex="1" parent="1">
          <mxGeometry x="373.5" y="640" width="210" height="50" as="geometry" />
        </mxCell>
        <mxCell id="LYocZ-cEpQhHaqbw6zhM-21" value="1.4 生成一个随机数，用公钥加密" style="endArrow=classic;html=1;rounded=0;fontSize=16;fillColor=#dae8fc;strokeColor=#6c8ebf;strokeWidth=2;" edge="1" parent="1">
          <mxGeometry y="20" width="50" height="50" relative="1" as="geometry">
            <mxPoint x="210" y="600" as="sourcePoint" />
            <mxPoint x="470" y="600" as="targetPoint" />
            <mxPoint as="offset" />
          </mxGeometry>
        </mxCell>
        <mxCell id="LYocZ-cEpQhHaqbw6zhM-23" value="1.6 用随机数根据算法，&lt;br&gt;生成对称加密密钥" style="text;html=1;align=center;verticalAlign=middle;resizable=0;points=[];autosize=1;strokeColor=#6c8ebf;fillColor=#dae8fc;fontSize=16;" vertex="1" parent="1">
          <mxGeometry x="106.11" y="700" width="190" height="50" as="geometry" />
        </mxCell>
        <mxCell id="LYocZ-cEpQhHaqbw6zhM-24" value="1.6 用随机数根据算法，&lt;br&gt;生成对称加密密钥" style="text;html=1;align=center;verticalAlign=middle;resizable=0;points=[];autosize=1;strokeColor=#9673a6;fillColor=#e1d5e7;fontSize=16;" vertex="1" parent="1">
          <mxGeometry x="373.5" y="700" width="190" height="50" as="geometry" />
        </mxCell>
        <mxCell id="LYocZ-cEpQhHaqbw6zhM-25" value="" style="shape=flexArrow;endArrow=classic;startArrow=classic;html=1;rounded=0;fontSize=16;fillColor=#f8cecc;strokeColor=#b85450;" edge="1" parent="1">
          <mxGeometry width="100" height="100" relative="1" as="geometry">
            <mxPoint x="210" y="850" as="sourcePoint" />
            <mxPoint x="470" y="850" as="targetPoint" />
          </mxGeometry>
        </mxCell>
        <mxCell id="LYocZ-cEpQhHaqbw6zhM-26" value="1.7 双方使用对称加密密钥加密通信" style="text;html=1;align=center;verticalAlign=middle;resizable=0;points=[];autosize=1;strokeColor=#b85450;fillColor=#f8cecc;fontSize=16;" vertex="1" parent="1">
          <mxGeometry x="200" y="800" width="270" height="30" as="geometry" />
        </mxCell>
        <mxCell id="LYocZ-cEpQhHaqbw6zhM-32" value="" style="shape=flexArrow;endArrow=classic;html=1;rounded=0;fontSize=16;fillColor=#e1d5e7;strokeColor=#9673a6;" edge="1" parent="1">
          <mxGeometry width="50" height="50" relative="1" as="geometry">
            <mxPoint x="620" y="320" as="sourcePoint" />
            <mxPoint x="620" y="980" as="targetPoint" />
          </mxGeometry>
        </mxCell>
        <mxCell id="LYocZ-cEpQhHaqbw6zhM-33" value="2.3 验证证书的合法性，&lt;br&gt;从证书拿到公钥" style="text;html=1;align=center;verticalAlign=middle;resizable=0;points=[];autosize=1;strokeColor=#9673a6;fillColor=#e1d5e7;fontSize=16;" vertex="1" parent="1">
          <mxGeometry x="540" y="490" width="190" height="50" as="geometry" />
        </mxCell>
        <mxCell id="LYocZ-cEpQhHaqbw6zhM-34" value="2.4 生成一个随机数，用公钥加密" style="endArrow=classic;html=1;rounded=0;fontSize=16;fillColor=#e1d5e7;strokeColor=#9673a6;strokeWidth=2;" edge="1" parent="1">
          <mxGeometry y="20" width="50" height="50" relative="1" as="geometry">
            <mxPoint x="628" y="600" as="sourcePoint" />
            <mxPoint x="888" y="600" as="targetPoint" />
            <mxPoint as="offset" />
          </mxGeometry>
        </mxCell>
        <mxCell id="LYocZ-cEpQhHaqbw6zhM-35" value="2.5 服务端用私钥加密后，&lt;br&gt;得到随机数" style="text;html=1;align=center;verticalAlign=middle;resizable=0;points=[];autosize=1;strokeColor=#d79b00;fillColor=#ffe6cc;fontSize=16;" vertex="1" parent="1">
          <mxGeometry x="790" y="630" width="210" height="50" as="geometry" />
        </mxCell>
        <mxCell id="LYocZ-cEpQhHaqbw6zhM-36" value="2.6 用随机数根据算法，&lt;br&gt;生成对称加密密钥" style="text;html=1;align=center;verticalAlign=middle;resizable=0;points=[];autosize=1;strokeColor=#d79b00;fillColor=#ffe6cc;fontSize=16;" vertex="1" parent="1">
          <mxGeometry x="800" y="770" width="190" height="50" as="geometry" />
        </mxCell>
        <mxCell id="LYocZ-cEpQhHaqbw6zhM-38" value="2.6 用随机数根据算法，&lt;br&gt;生成对称加密密钥" style="text;html=1;align=center;verticalAlign=middle;resizable=0;points=[];autosize=1;strokeColor=#9673a6;fillColor=#e1d5e7;fontSize=16;" vertex="1" parent="1">
          <mxGeometry x="540" y="770" width="190" height="50" as="geometry" />
        </mxCell>
        <mxCell id="LYocZ-cEpQhHaqbw6zhM-39" value="" style="shape=flexArrow;endArrow=classic;startArrow=classic;html=1;rounded=0;fontSize=16;fillColor=#f8cecc;strokeColor=#b85450;" edge="1" parent="1">
          <mxGeometry width="100" height="100" relative="1" as="geometry">
            <mxPoint x="625" y="920" as="sourcePoint" />
            <mxPoint x="885" y="920" as="targetPoint" />
          </mxGeometry>
        </mxCell>
        <mxCell id="LYocZ-cEpQhHaqbw6zhM-40" value="2.7 双方使用对称加密密钥加密通信" style="text;html=1;align=center;verticalAlign=middle;resizable=0;points=[];autosize=1;strokeColor=#b85450;fillColor=#f8cecc;fontSize=16;" vertex="1" parent="1">
          <mxGeometry x="620" y="860" width="270" height="30" as="geometry" />
        </mxCell>
      </root>
    </mxGraphModel>
  </diagram>
</mxfile>
